<svg width="20" height="22" viewBox="0 0 20 22" fill="none" xmlns="http://www.w3.org/2000/svg">
<g filter="url(#filter0_d)">
<path fill-rule="evenodd" clip-rule="evenodd" d="M10.0001 1.16667C8.7624 1.16667 7.57542 1.65833 6.70025 2.5335C5.82508 3.40867 5.33341 4.59566 5.33341 5.83333C5.33341 7.64053 6.50926 9.39415 7.79855 10.7551C8.43127 11.4229 9.06597 11.9697 9.54314 12.3497C9.72073 12.4911 9.87584 12.6089 10.0001 12.7007C10.1243 12.6089 10.2794 12.4911 10.457 12.3497C10.9342 11.9697 11.5689 11.4229 12.2016 10.7551C13.4909 9.39415 14.6667 7.64053 14.6667 5.83333C14.6667 4.59566 14.1751 3.40867 13.2999 2.5335C12.4247 1.65833 11.2378 1.16667 10.0001 1.16667ZM10.0001 13.4167C9.67651 13.902 9.67636 13.9019 9.67619 13.9018L9.67452 13.9007L9.67064 13.8981L9.65727 13.8891C9.64591 13.8813 9.62971 13.8703 9.60899 13.8559C9.56756 13.8272 9.50802 13.7854 9.43296 13.7312C9.2829 13.6228 9.07046 13.4646 8.8164 13.2623C8.30919 12.8584 7.63139 12.275 6.95161 11.5574C5.6159 10.1475 4.16675 8.10947 4.16675 5.83333C4.16675 4.28624 4.78133 2.80251 5.87529 1.70854C6.96925 0.614581 8.45299 0 10.0001 0C11.5472 0 13.0309 0.614581 14.1249 1.70854C15.2188 2.80251 15.8334 4.28624 15.8334 5.83333C15.8334 8.10947 14.3843 10.1475 13.0486 11.5574C12.3688 12.275 11.691 12.8584 11.1838 13.2623C10.9297 13.4646 10.7173 13.6228 10.5672 13.7312C10.4921 13.7854 10.4326 13.8272 10.3912 13.8559C10.3705 13.8703 10.3543 13.8813 10.3429 13.8891L10.3295 13.8981L10.3256 13.9007L10.3244 13.9015C10.3242 13.9016 10.3237 13.902 10.0001 13.4167ZM10.0001 13.4167L10.3237 13.902C10.1277 14.0327 9.87213 14.0324 9.67619 13.9018L10.0001 13.4167Z" fill="white"/>
<path fill-rule="evenodd" clip-rule="evenodd" d="M10.0001 4.66667C9.35575 4.66667 8.83341 5.189 8.83341 5.83333C8.83341 6.47767 9.35575 7 10.0001 7C10.6444 7 11.1667 6.47767 11.1667 5.83333C11.1667 5.189 10.6444 4.66667 10.0001 4.66667ZM7.66675 5.83333C7.66675 4.54467 8.71142 3.5 10.0001 3.5C11.2887 3.5 12.3334 4.54467 12.3334 5.83333C12.3334 7.122 11.2887 8.16667 10.0001 8.16667C8.71142 8.16667 7.66675 7.122 7.66675 5.83333Z" fill="white"/>
</g>
<defs>
<filter id="filter0_d" x="-1" y="0" width="22" height="22" filterUnits="userSpaceOnUse" color-interpolation-filters="sRGB">
<feFlood flood-opacity="0" result="BackgroundImageFix"/>
<feColorMatrix in="SourceAlpha" type="matrix" values="0 0 0 0 0 0 0 0 0 0 0 0 0 0 0 0 0 0 127 0"/>
<feOffset dy="4"/>
<feGaussianBlur stdDeviation="2"/>
<feColorMatrix type="matrix" values="0 0 0 0 0 0 0 0 0 0 0 0 0 0 0 0 0 0 0.25 0"/>
<feBlend mode="normal" in2="BackgroundImageFix" result="effect1_dropShadow"/>
<feBlend mode="normal" in="SourceGraphic" in2="effect1_dropShadow" result="shape"/>
</filter>
</defs>
</svg>
